<mxfile host="app.diagrams.net" modified="2023-11-23T18:36:16.209Z" agent="Mozilla/5.0 (Windows NT 10.0; Win64; x64) AppleWebKit/537.36 (KHTML, like Gecko) Chrome/119.0.0.0 Safari/537.36" etag="R92lW0Xt76itdxOpCOeh" version="22.1.3" type="device">
  <diagram name="Seite-1" id="uDOMQ9eLK_1JoX8pW16U">
    <mxGraphModel dx="2216" dy="767" grid="1" gridSize="10" guides="1" tooltips="1" connect="1" arrows="1" fold="1" page="1" pageScale="1" pageWidth="827" pageHeight="1169" math="0" shadow="0">
      <root>
        <mxCell id="0" />
        <mxCell id="1" parent="0" />
        <mxCell id="QrnV6IS9a15yOWh2zaYz-1" value="" style="whiteSpace=wrap;html=1;aspect=fixed;fillColor=#f5f5f5;fontColor=#333333;strokeColor=#666666;" parent="1" vertex="1">
          <mxGeometry x="-160" y="120" width="700" height="700" as="geometry" />
        </mxCell>
        <mxCell id="QrnV6IS9a15yOWh2zaYz-3" value="&lt;b&gt;&lt;font style=&quot;font-size: 16px;&quot;&gt;Bun&lt;/font&gt;&lt;/b&gt;" style="text;html=1;strokeColor=none;fillColor=none;align=center;verticalAlign=middle;whiteSpace=wrap;rounded=0;" parent="1" vertex="1">
          <mxGeometry x="-20" y="135" width="60" height="30" as="geometry" />
        </mxCell>
        <mxCell id="QrnV6IS9a15yOWh2zaYz-4" value="&lt;b&gt;&lt;font style=&quot;font-size: 16px;&quot;&gt;Node.js&lt;/font&gt;&lt;/b&gt;" style="text;html=1;strokeColor=none;fillColor=none;align=center;verticalAlign=middle;whiteSpace=wrap;rounded=0;" parent="1" vertex="1">
          <mxGeometry x="340" y="135" width="60" height="30" as="geometry" />
        </mxCell>
        <mxCell id="QrnV6IS9a15yOWh2zaYz-8" value="Executable (Zig)" style="rounded=1;whiteSpace=wrap;html=1;fillColor=#d5e8d4;strokeColor=#82b366;horizontal=1;verticalAlign=top;" parent="1" vertex="1">
          <mxGeometry x="-140" y="181" width="310" height="629" as="geometry" />
        </mxCell>
        <mxCell id="QrnV6IS9a15yOWh2zaYz-10" value="Execution Runtime" style="rounded=1;whiteSpace=wrap;html=1;fillColor=#ffe6cc;strokeColor=#d79b00;align=center;horizontal=1;verticalAlign=top;" parent="1" vertex="1">
          <mxGeometry x="-130" y="210" width="290" height="100" as="geometry" />
        </mxCell>
        <mxCell id="QrnV6IS9a15yOWh2zaYz-11" value="JavaScriptCore Engine" style="rounded=1;whiteSpace=wrap;html=1;fillColor=#f8cecc;strokeColor=#b85450;" parent="1" vertex="1">
          <mxGeometry x="-120" y="240" width="120" height="60" as="geometry" />
        </mxCell>
        <mxCell id="QrnV6IS9a15yOWh2zaYz-12" value="Core Modules&amp;nbsp;&lt;br&gt;&amp;amp; API" style="rounded=1;whiteSpace=wrap;html=1;fillColor=#f8cecc;strokeColor=#b85450;" parent="1" vertex="1">
          <mxGeometry x="20" y="240" width="120" height="60" as="geometry" />
        </mxCell>
        <mxCell id="QrnV6IS9a15yOWh2zaYz-13" value="Transpiler / Bundler" style="rounded=1;whiteSpace=wrap;html=1;fillColor=#ffe6cc;strokeColor=#d79b00;align=center;horizontal=1;verticalAlign=top;" parent="1" vertex="1">
          <mxGeometry x="-129" y="336" width="290" height="100" as="geometry" />
        </mxCell>
        <mxCell id="QrnV6IS9a15yOWh2zaYz-15" value="Package Manager" style="rounded=1;whiteSpace=wrap;html=1;fillColor=#ffe6cc;strokeColor=#d79b00;align=center;horizontal=1;verticalAlign=top;" parent="1" vertex="1">
          <mxGeometry x="-129" y="446" width="290" height="100" as="geometry" />
        </mxCell>
        <mxCell id="QrnV6IS9a15yOWh2zaYz-16" value="Testing Libraries" style="rounded=1;whiteSpace=wrap;html=1;fillColor=#ffe6cc;strokeColor=#d79b00;align=center;horizontal=1;verticalAlign=top;" parent="1" vertex="1">
          <mxGeometry x="-129" y="560" width="290" height="100" as="geometry" />
        </mxCell>
        <mxCell id="QrnV6IS9a15yOWh2zaYz-17" value="TypeScript Support (Built-in)" style="rounded=1;whiteSpace=wrap;html=1;fillColor=#ffe6cc;strokeColor=#d79b00;align=center;horizontal=1;verticalAlign=top;" parent="1" vertex="1">
          <mxGeometry x="-129" y="680" width="290" height="100" as="geometry" />
        </mxCell>
        <mxCell id="QrnV6IS9a15yOWh2zaYz-18" value="bun install &amp;lt;pkg&amp;gt;" style="rounded=1;whiteSpace=wrap;html=1;fillColor=#f8cecc;strokeColor=#b85450;" parent="1" vertex="1">
          <mxGeometry x="-119" y="476" width="270" height="60" as="geometry" />
        </mxCell>
        <mxCell id="QrnV6IS9a15yOWh2zaYz-19" value="bun test" style="rounded=1;whiteSpace=wrap;html=1;fillColor=#f8cecc;strokeColor=#b85450;" parent="1" vertex="1">
          <mxGeometry x="-119" y="590" width="270" height="60" as="geometry" />
        </mxCell>
        <mxCell id="QrnV6IS9a15yOWh2zaYz-20" value="bun run index.ts" style="rounded=1;whiteSpace=wrap;html=1;fillColor=#f8cecc;strokeColor=#b85450;" parent="1" vertex="1">
          <mxGeometry x="-119" y="710" width="270" height="60" as="geometry" />
        </mxCell>
        <mxCell id="QrnV6IS9a15yOWh2zaYz-21" value="bun build" style="rounded=1;whiteSpace=wrap;html=1;fillColor=#f8cecc;strokeColor=#b85450;" parent="1" vertex="1">
          <mxGeometry x="-119" y="370" width="270" height="60" as="geometry" />
        </mxCell>
        <mxCell id="QrnV6IS9a15yOWh2zaYz-22" value="Executable (C / C++)" style="rounded=1;whiteSpace=wrap;html=1;fillColor=#d5e8d4;strokeColor=#82b366;horizontal=1;verticalAlign=top;" parent="1" vertex="1">
          <mxGeometry x="215" y="181" width="310" height="139" as="geometry" />
        </mxCell>
        <mxCell id="QrnV6IS9a15yOWh2zaYz-24" value="Execution Runtime" style="rounded=1;whiteSpace=wrap;html=1;fillColor=#ffe6cc;strokeColor=#d79b00;align=center;horizontal=1;verticalAlign=top;" parent="1" vertex="1">
          <mxGeometry x="225" y="210" width="290" height="100" as="geometry" />
        </mxCell>
        <mxCell id="QrnV6IS9a15yOWh2zaYz-25" value="V8 Engine" style="rounded=1;whiteSpace=wrap;html=1;fillColor=#f8cecc;strokeColor=#b85450;" parent="1" vertex="1">
          <mxGeometry x="236" y="240" width="120" height="60" as="geometry" />
        </mxCell>
        <mxCell id="QrnV6IS9a15yOWh2zaYz-26" value="Core Modules&amp;nbsp;&lt;br&gt;&amp;amp; API" style="rounded=1;whiteSpace=wrap;html=1;fillColor=#f8cecc;strokeColor=#b85450;" parent="1" vertex="1">
          <mxGeometry x="386" y="240" width="120" height="60" as="geometry" />
        </mxCell>
        <mxCell id="QrnV6IS9a15yOWh2zaYz-27" value="Package Manager" style="rounded=1;whiteSpace=wrap;html=1;fillColor=#ffe6cc;strokeColor=#d79b00;align=center;horizontal=1;verticalAlign=top;" parent="1" vertex="1">
          <mxGeometry x="225" y="446" width="290" height="100" as="geometry" />
        </mxCell>
        <mxCell id="QrnV6IS9a15yOWh2zaYz-29" value="NPM" style="rounded=1;whiteSpace=wrap;html=1;fillColor=#f8cecc;strokeColor=#b85450;" parent="1" vertex="1">
          <mxGeometry x="236" y="476" width="120" height="60" as="geometry" />
        </mxCell>
        <mxCell id="QrnV6IS9a15yOWh2zaYz-30" value="Yarn" style="rounded=1;whiteSpace=wrap;html=1;fillColor=#f8cecc;strokeColor=#b85450;" parent="1" vertex="1">
          <mxGeometry x="386" y="476" width="120" height="60" as="geometry" />
        </mxCell>
        <mxCell id="QrnV6IS9a15yOWh2zaYz-31" value="Transpiler / Bundler&amp;nbsp;" style="rounded=1;whiteSpace=wrap;html=1;fillColor=#ffe6cc;strokeColor=#d79b00;align=center;horizontal=1;verticalAlign=top;" parent="1" vertex="1">
          <mxGeometry x="225" y="336" width="290" height="100" as="geometry" />
        </mxCell>
        <mxCell id="QrnV6IS9a15yOWh2zaYz-32" value="Testing Libraries" style="rounded=1;whiteSpace=wrap;html=1;fillColor=#ffe6cc;strokeColor=#d79b00;align=center;horizontal=1;verticalAlign=top;" parent="1" vertex="1">
          <mxGeometry x="225" y="560" width="290" height="100" as="geometry" />
        </mxCell>
        <mxCell id="QrnV6IS9a15yOWh2zaYz-33" value="Vitest" style="rounded=1;whiteSpace=wrap;html=1;fillColor=#f8cecc;strokeColor=#b85450;" parent="1" vertex="1">
          <mxGeometry x="236" y="590" width="120" height="60" as="geometry" />
        </mxCell>
        <mxCell id="QrnV6IS9a15yOWh2zaYz-34" value="Jest" style="rounded=1;whiteSpace=wrap;html=1;fillColor=#f8cecc;strokeColor=#b85450;" parent="1" vertex="1">
          <mxGeometry x="386" y="590" width="120" height="60" as="geometry" />
        </mxCell>
        <mxCell id="QrnV6IS9a15yOWh2zaYz-36" value="Webpack (JS)" style="rounded=1;whiteSpace=wrap;html=1;fillColor=#f8cecc;strokeColor=#b85450;" parent="1" vertex="1">
          <mxGeometry x="236" y="370" width="120" height="60" as="geometry" />
        </mxCell>
        <mxCell id="QrnV6IS9a15yOWh2zaYz-38" value="esbuild (Go)" style="rounded=1;whiteSpace=wrap;html=1;fillColor=#f8cecc;strokeColor=#b85450;" parent="1" vertex="1">
          <mxGeometry x="386" y="370" width="120" height="60" as="geometry" />
        </mxCell>
        <mxCell id="QrnV6IS9a15yOWh2zaYz-40" value="TypeScript Support" style="rounded=1;whiteSpace=wrap;html=1;fillColor=#ffe6cc;strokeColor=#d79b00;align=center;horizontal=1;verticalAlign=top;" parent="1" vertex="1">
          <mxGeometry x="226" y="680" width="290" height="100" as="geometry" />
        </mxCell>
        <mxCell id="QrnV6IS9a15yOWh2zaYz-41" value="TypeScript Compiler (TSC)" style="rounded=1;whiteSpace=wrap;html=1;fillColor=#f8cecc;strokeColor=#b85450;" parent="1" vertex="1">
          <mxGeometry x="236" y="710" width="270" height="60" as="geometry" />
        </mxCell>
      </root>
    </mxGraphModel>
  </diagram>
</mxfile>
